{
	"asset":{
		"generator":"Khronos glTF Blender I/O v4.4.56",
		"version":"2.0"
	},
	"extensionsUsed":[
		"KHR_lights_punctual"
	],
	"extensionsRequired":[
		"KHR_lights_punctual"
	],
	"extensions":{
		"KHR_lights_punctual":{
			"lights":[
				{
					"color":[
						1,
						1,
						1
					],
					"intensity":54351.41306588226,
					"type":"point",
					"name":"Light"
				}
			]
		}
	},
	"scene":0,
	"scenes":[
		{
			"extras":{
				"skein_extension_properties":{}
			},
			"name":"Scene",
			"nodes":[
				0,
				1,
				2,
				3
			]
		}
	],
	"nodes":[
		{
			"extensions":{
				"KHR_lights_punctual":{
					"light":0
				}
			},
			"extras":{
				"skein_two":[
					{
						"name":"PointLight",
						"selected_type_path":"bevy_pbr::light::point_light::PointLight",
						"bevy_pbr::light::point_light::PointLight":{
							"color":{
								"Srgba":{},
								"LinearRgba":{
									"alpha":1.0,
									"blue":1.0,
									"green":1.0,
									"red":1.0
								},
								"Hsla":{},
								"Hsva":{},
								"Hwba":{},
								"Laba":{},
								"Lcha":{},
								"Oklaba":{},
								"Oklcha":{},
								"Xyza":{},
								"skein_enum_index":1
							},
							"affects_lightmapped_mesh_diffuse":1,
							"intensity":1000000.0,
							"radius":0.0,
							"range":20.0,
							"shadow_depth_bias":0.07999999821186066,
							"shadow_map_near_z":0.10000000149011612,
							"shadow_normal_bias":0.6000000238418579,
							"shadows_enabled":0
						}
					}
				],
				"active_component_index":0,
				"skein":[
					{
						"bevy_pbr::light::point_light::PointLight":{
							"affects_lightmapped_mesh_diffuse":true,
							"color":{
								"LinearRgba":{
									"alpha":1.0,
									"blue":1.0,
									"green":1.0,
									"red":1.0
								}
							},
							"intensity":1000000.0,
							"radius":0.0,
							"range":20.0,
							"shadow_depth_bias":0.07999999821186066,
							"shadow_map_near_z":0.10000000149011612,
							"shadow_normal_bias":0.6000000238418579,
							"shadows_enabled":false
						}
					}
				]
			},
			"name":"Light",
			"rotation":[
				-0.28416627645492554,
				0.7269423007965088,
				0.34203392267227173,
				0.5232754945755005
			],
			"translation":[
				4.076245307922363,
				5.903861999511719,
				-1.0054539442062378
			]
		},
		{
			"camera":0,
			"extras":{
				"skein_two":[],
				"active_component_index":0,
				"skein":[]
			},
			"name":"Camera",
			"rotation":[
				-0.20997299253940582,
				0.3857799470424652,
				0.09062844514846802,
				0.8937962055206299
			],
			"translation":[
				7.358891487121582,
				4.958309173583984,
				6.925790786743164
			]
		},
		{
			"mesh":0,
			"name":"Plane",
			"scale":[
				153.4837646484375,
				1,
				153.4837646484375
			],
			"translation":[
				-1.0000202655792236,
				0.6227700710296631,
				0.08236074447631836
			]
		},
		{
			"extras":{
				"skein_two":[
					{
						"name":"MyMeshMarker",
						"selected_type_path":"game::MyMeshMarker"
					}
				],
				"active_component_index":0,
				"skein":[
					{
						"game::MyMeshMarker":{}
					}
				]
			},
			"mesh":1,
			"name":"Icosphere",
			"scale":[
				2,
				2,
				2
			],
			"translation":[
				1.3545868396759033,
				2.168623447418213,
				1.3419477939605713
			]
		}
	],
	"cameras":[
		{
			"name":"Camera",
			"perspective":{
				"aspectRatio":1.7777777777777777,
				"yfov":0.8965764591489893,
				"zfar":100,
				"znear":0.10000000149011612
			},
			"type":"perspective"
		}
	],
	"meshes":[
		{
			"name":"Plane",
			"primitives":[
				{
					"attributes":{
						"POSITION":0,
						"NORMAL":1,
						"TEXCOORD_0":2
					},
					"indices":3
				}
			]
		},
		{
			"name":"Icosphere",
			"primitives":[
				{
					"attributes":{
						"POSITION":4,
						"NORMAL":5,
						"TEXCOORD_0":6
					},
					"indices":7
				}
			]
		}
	],
	"accessors":[
		{
			"bufferView":0,
			"componentType":5126,
			"count":4,
			"max":[
				1,
				0,
				1
			],
			"min":[
				-1,
				0,
				-1
			],
			"type":"VEC3"
		},
		{
			"bufferView":1,
			"componentType":5126,
			"count":4,
			"type":"VEC3"
		},
		{
			"bufferView":2,
			"componentType":5126,
			"count":4,
			"type":"VEC2"
		},
		{
			"bufferView":3,
			"componentType":5123,
			"count":6,
			"type":"SCALAR"
		},
		{
			"bufferView":4,
			"componentType":5126,
			"count":240,
			"max":[
				0.9510578513145447,
				1,
				0.9999999403953552
			],
			"min":[
				-0.9510578513145447,
				-1,
				-0.9999999403953552
			],
			"type":"VEC3"
		},
		{
			"bufferView":5,
			"componentType":5126,
			"count":240,
			"type":"VEC3"
		},
		{
			"bufferView":6,
			"componentType":5126,
			"count":240,
			"type":"VEC2"
		},
		{
			"bufferView":7,
			"componentType":5123,
			"count":240,
			"type":"SCALAR"
		}
	],
	"bufferViews":[
		{
			"buffer":0,
			"byteLength":48,
			"byteOffset":0,
			"target":34962
		},
		{
			"buffer":0,
			"byteLength":48,
			"byteOffset":48,
			"target":34962
		},
		{
			"buffer":0,
			"byteLength":32,
			"byteOffset":96,
			"target":34962
		},
		{
			"buffer":0,
			"byteLength":12,
			"byteOffset":128,
			"target":34963
		},
		{
			"buffer":0,
			"byteLength":2880,
			"byteOffset":140,
			"target":34962
		},
		{
			"buffer":0,
			"byteLength":2880,
			"byteOffset":3020,
			"target":34962
		},
		{
			"buffer":0,
			"byteLength":1920,
			"byteOffset":5900,
			"target":34962
		},
		{
			"buffer":0,
			"byteLength":480,
			"byteOffset":7820,
			"target":34963
		}
	],
	"buffers":[
		{
			"byteLength":8300,
			"uri":"scene.bin"
		}
	]
}
